<svg width="24" height="24" viewBox="0 0 24 24" fill="none" xmlns="http://www.w3.org/2000/svg">
<rect width="24" height="24" rx="3" fill="black"/>
<g clip-path="url(#clip0_28_1738)">
<path d="M12.0031 8.40635C10.0156 8.40635 8.41249 10.0095 8.41249 11.997C8.41249 13.9845 10.0156 15.5876 12.0031 15.5876C13.9906 15.5876 15.5937 13.9845 15.5937 11.997C15.5937 10.0095 13.9906 8.40635 12.0031 8.40635ZM12.0031 14.3313C10.7187 14.3313 9.66874 13.2845 9.66874 11.997C9.66874 10.7095 10.7156 9.6626 12.0031 9.6626C13.2906 9.6626 14.3375 10.7095 14.3375 11.997C14.3375 13.2845 13.2875 14.3313 12.0031 14.3313ZM16.5781 8.25947C16.5781 8.7251 16.2031 9.09697 15.7406 9.09697C15.275 9.09697 14.9031 8.72197 14.9031 8.25947C14.9031 7.79697 15.2781 7.42197 15.7406 7.42197C16.2031 7.42197 16.5781 7.79697 16.5781 8.25947ZM18.9562 9.10947C18.9031 7.9876 18.6469 6.99385 17.825 6.1751C17.0062 5.35635 16.0125 5.1001 14.8906 5.04385C13.7344 4.97822 10.2687 4.97822 9.11249 5.04385C7.99374 5.09697 6.99999 5.35322 6.17812 6.17197C5.35624 6.99072 5.10312 7.98447 5.04687 9.10635C4.98124 10.2626 4.98124 13.7282 5.04687 14.8845C5.09999 16.0063 5.35624 17.0001 6.17812 17.8188C6.99999 18.6376 7.99062 18.8938 9.11249 18.9501C10.2687 19.0157 13.7344 19.0157 14.8906 18.9501C16.0125 18.897 17.0062 18.6407 17.825 17.8188C18.6437 17.0001 18.9 16.0063 18.9562 14.8845C19.0219 13.7282 19.0219 10.2657 18.9562 9.10947ZM17.4625 16.1251C17.2187 16.7376 16.7469 17.2095 16.1312 17.4563C15.2094 17.822 13.0219 17.7376 12.0031 17.7376C10.9844 17.7376 8.79374 17.8188 7.87499 17.4563C7.26249 17.2126 6.79062 16.7407 6.54374 16.1251C6.17812 15.2032 6.26249 13.0157 6.26249 11.997C6.26249 10.9782 6.18124 8.7876 6.54374 7.86885C6.78749 7.25635 7.25937 6.78447 7.87499 6.5376C8.79687 6.17197 10.9844 6.25635 12.0031 6.25635C13.0219 6.25635 15.2125 6.1751 16.1312 6.5376C16.7437 6.78135 17.2156 7.25322 17.4625 7.86885C17.8281 8.79072 17.7437 10.9782 17.7437 11.997C17.7437 13.0157 17.8281 15.2063 17.4625 16.1251Z" fill="white"/>
</g>
<defs>
<clipPath id="clip0_28_1738">
<rect width="14" height="16" fill="white" transform="translate(5 4)"/>
</clipPath>
</defs>
</svg>
