<svg width="24" height="24" viewBox="0 0 24 24" fill="none" xmlns="http://www.w3.org/2000/svg">
<path d="M2.40002 8.36076C2.40002 7.31436 2.40002 6.79116 2.58271 6.32071C2.7654 5.85026 3.11224 5.4803 3.80591 4.74038L4.59414 3.8996C5.28781 3.15969 5.63465 2.78973 6.0757 2.59486C6.51674 2.39999 7.00724 2.39999 7.98824 2.39999H16.0117C16.9927 2.39999 17.4833 2.39999 17.9243 2.59486C18.3654 2.78973 18.7122 3.15969 19.4059 3.8996L20.1941 4.74038C20.8878 5.4803 21.2346 5.85026 21.4174 6.32071C21.6 6.79116 21.6 7.31436 21.6 8.36076V16.48C21.6 18.8936 21.6 20.1003 20.8971 20.8502C20.1941 21.6 19.0627 21.6 16.8 21.6H7.20002C4.93728 21.6 3.80591 21.6 3.10297 20.8502C2.40002 20.1003 2.40002 18.8936 2.40002 16.48V8.36076Z" stroke="black" stroke-width="1.6" stroke-linejoin="round"/>
<path d="M2.40002 9.60001H21.6" stroke="black" stroke-width="1.6" stroke-linecap="round" stroke-linejoin="round"/>
<path d="M15.06 9.60001H8.94002C8.68547 9.60001 8.55818 9.60001 8.4791 9.68005C8.40002 9.76009 8.40002 9.88897 8.40002 10.1466V14.7018C8.40002 15.5378 8.40002 15.9559 8.50685 16.1807C8.7453 16.6823 9.31801 16.9224 9.83702 16.7383C10.0695 16.6559 10.3615 16.3603 10.9456 15.7691C11.2161 15.4952 11.3514 15.3583 11.4952 15.2814C11.811 15.1123 12.189 15.1123 12.5049 15.2814C12.6486 15.3583 12.784 15.4952 13.0545 15.7691C13.6385 16.3603 13.9306 16.6559 14.163 16.7383C14.682 16.9224 15.2548 16.6823 15.4932 16.1807C15.6 15.9559 15.6 15.5378 15.6 14.7018V10.1466C15.6 9.88897 15.6 9.76009 15.5209 9.68005C15.4419 9.60001 15.3145 9.60001 15.06 9.60001Z" fill="black"/>
</svg>
